<mxfile host="app.diagrams.net" modified="2023-05-26T11:39:19.710Z" agent="Mozilla/5.0 (X11; Linux x86_64) AppleWebKit/537.36 (KHTML, like Gecko) Chrome/113.0.0.0 Safari/537.36" version="21.2.4" etag="uvHc8fpWCdkp7z3BW41_" type="github">
  <diagram name="Страница 1" id="auIiIouAkpJRLkK87O0y">
    <mxGraphModel>
      <root>
        <mxCell id="0" />
        <mxCell id="1" parent="0" />
      </root>
    </mxGraphModel>
  </diagram>
</mxfile>
